<svg xmlns="http://www.w3.org/2000/svg" viewBox="0 0 375.17 421"><defs><style>.cls-1{fill:#ea5e79;}.cls-2{fill:none;}</style></defs><title>CRAB_logo_sq</title><g id="レイヤー_2" data-name="レイヤー 2"><g id="レイヤー_1-2" data-name="レイヤー 1"><circle class="cls-1" cx="113.31" cy="251.27" r="6.32"/><circle class="cls-1" cx="142.39" cy="251.27" r="6.32"/><path class="cls-1" d="M144.92,261.11a5.06,5.06,0,1,0,5.06,5.06A5.06,5.06,0,0,0,144.92,261.11Z"/><circle class="cls-1" cx="153.68" cy="82.29" r="6.32"/><path class="cls-1" d="M168.37,80.21a5.06,5.06,0,1,0-5.06-5.06A5.06,5.06,0,0,0,168.37,80.21Z"/><path class="cls-1" d="M187.59,230.43a80.05,80.05,0,0,0,30.69-6.1,3,3,0,0,1,3.89,1.58,37.33,37.33,0,0,1,2.72,9.48,6.38,6.38,0,0,0,6.26,5.53h0a6.34,6.34,0,0,0,6.26-7.24A50.39,50.39,0,0,0,233,219.29a2.93,2.93,0,0,1,1-3.65,80.94,80.94,0,0,0,8.84-7.25,3,3,0,0,1,4.78.77,67.54,67.54,0,0,1,7.65,26.07,6.33,6.33,0,0,0,8.75,5.21,6.42,6.42,0,0,0,3.81-6.61,79.93,79.93,0,0,0-9.68-31.72,13.92,13.92,0,0,1,0-13.49q1.94-3.51,3.53-7.23a80.43,80.43,0,0,0-18.49-89.75c-1-1-2-1.87-3-2.75a6.39,6.39,0,0,0-10.32,2.94c-.4,1.32-.76,2.67-1.09,4a80.29,80.29,0,0,0,17.91,72.24,10.88,10.88,0,0,1,1.68,12.05c-.24.49-.49,1-.75,1.45a3,3,0,0,1-4.73.81,80.55,80.55,0,0,0-25.57-16.36,8.54,8.54,0,0,1-5.47-7.91v-2.37a9,9,0,0,1,2.8-6.33,8.83,8.83,0,1,0-11.75.66,5.19,5.19,0,0,1,2,4v1.62a5.4,5.4,0,0,1-6.13,5.38,79.71,79.71,0,0,0-22.53,0,5.41,5.41,0,0,1-6.13-5.38v-1.62a5.22,5.22,0,0,1,2.05-4,8.82,8.82,0,1,0-11.74-.66,9,9,0,0,1,2.79,6.33v2.37a8.55,8.55,0,0,1-5.46,7.91,80.6,80.6,0,0,0-25.58,16.36,3,3,0,0,1-4.73-.81c-.25-.48-.5-1-.74-1.45a10.86,10.86,0,0,1,1.67-12.05,80.29,80.29,0,0,0,17.91-72.24c-.33-1.36-.69-2.71-1.09-4A6.39,6.39,0,0,0,135,88.89c-1,.88-2,1.8-3,2.75a80.4,80.4,0,0,0-22.66,77.17,78.94,78.94,0,0,0,4.17,12.58,77.92,77.92,0,0,0,3.53,7.23,13.92,13.92,0,0,1,0,13.49,80.09,80.09,0,0,0-9.68,31.72,6.42,6.42,0,0,0,3.81,6.61,6.32,6.32,0,0,0,8.75-5.21,67.54,67.54,0,0,1,7.65-26.07,3,3,0,0,1,4.78-.77,81,81,0,0,0,8.85,7.25,2.94,2.94,0,0,1,1,3.65,49.77,49.77,0,0,0-4.37,14.39,6.33,6.33,0,0,0,6.25,7.24h0a6.36,6.36,0,0,0,6.25-5.53,37.74,37.74,0,0,1,2.72-9.48,3,3,0,0,1,3.89-1.58A80.06,80.06,0,0,0,187.59,230.43Z"/><circle class="cls-1" cx="261.86" cy="251.27" r="6.32"/><circle class="cls-1" cx="232.78" cy="251.27" r="6.32"/><path class="cls-1" d="M230.25,261.11a5.06,5.06,0,1,1-5.05,5.06A5.06,5.06,0,0,1,230.25,261.11Z"/><circle class="cls-1" cx="221.5" cy="82.29" r="6.32"/><path class="cls-1" d="M206.81,80.21a5.06,5.06,0,1,1,5.05-5.06A5.06,5.06,0,0,1,206.81,80.21Z"/><path class="cls-1" d="M101,293.4H86.75A16.67,16.67,0,0,0,70.1,310.05v24.2A16.67,16.67,0,0,0,86.75,350.9H101a16.67,16.67,0,0,0,16.66-16.65v-4.87h-5.1a4.87,4.87,0,0,0-4.86,4.87,6.93,6.93,0,0,1-6.93,6.92H87a6.93,6.93,0,0,1-6.93-6.92v-24.2A6.94,6.94,0,0,1,87,303.12H100.8a6.94,6.94,0,0,1,6.93,6.93,4.87,4.87,0,0,0,4.86,4.87h5.1v-4.87A16.67,16.67,0,0,0,101,293.4Z"/><path class="cls-1" d="M179.14,313.14v-3.09a16.66,16.66,0,0,0-16.66-16.65H136.22v52.21a5.29,5.29,0,0,0,5.29,5.29h4.67V303.12h16.54a6.94,6.94,0,0,1,6.93,6.93v3.09a6.93,6.93,0,0,1-6.93,6.93H149.38L169,348.71a5,5,0,0,0,4.15,2.19h8.9l-15.58-22.53C173.94,327.32,179.14,320.58,179.14,313.14Z"/><path class="cls-1" d="M193.59,350.9H201a5,5,0,0,0,4.64-3.09l14.44-34.93,14.43,34.93a5,5,0,0,0,4.64,3.09h7.44L223.12,295a3.28,3.28,0,0,0-6.05,0Z"/><path class="cls-1" d="M298.71,321.11a15.81,15.81,0,0,0,4.3-10.77,16.32,16.32,0,0,0-4.78-11.74,17.41,17.41,0,0,0-12.34-5.2H260.57v52.21a5.29,5.29,0,0,0,5.28,5.29h22.57a16.83,16.83,0,0,0,16.65-17A16.28,16.28,0,0,0,298.71,321.11ZM286.61,318h-9.82v2.65c0,3.2,2.59,5.36,5.79,5.36h6.26a7.32,7.32,0,0,1,5,2.52,7.63,7.63,0,0,1,1.94,5.6c-.16,3.62-3.35,7.15-7.1,7.15h-18.8V303h16.92a6.76,6.76,0,0,1,4.93,2.11c1.38,1.44,2,4,2,6.13A6.76,6.76,0,0,1,286.61,318Z"/><rect class="cls-2" width="375.17" height="421"/></g></g></svg>